<?xml version="1.0" encoding="UTF-8"?><svg id="Layer_1" xmlns="http://www.w3.org/2000/svg" viewBox="0 0 25 25"><defs><style>.cls-1{fill:#ec1e24;}.cls-2{fill:#fff;}.cls-3{fill:#ffbbed;}</style></defs><polygon class="cls-3" points="21.5 10.5 21.5 9.5 21.5 8.5 20.5 8.5 20.5 7.5 20.5 6.5 19.5 6.5 19.5 5.5 18.5 5.5 18.5 4.5 17.5 4.5 16.5 4.5 16.5 3.5 15.5 3.5 14.5 3.5 14.5 2.5 13.5 2.5 12.5 2.5 11.5 2.5 10.5 2.5 10.5 3.5 9.5 3.5 8.5 3.5 8.5 4.5 7.5 4.5 6.5 4.5 6.5 5.5 5.5 5.5 5.5 6.5 4.5 6.5 4.5 7.5 4.5 8.5 3.5 8.5 3.5 9.5 3.5 10.5 2.5 10.5 2.5 11.5 2.5 12.5 2.5 13.5 2.5 14.5 3.5 14.5 3.5 15.5 3.5 16.5 4.5 16.5 4.5 17.5 4.5 18.5 5.5 18.5 5.5 19.5 6.5 19.5 6.5 20.5 7.5 20.5 8.5 20.5 8.5 21.5 9.5 21.5 10.5 21.5 10.5 22.5 11.5 22.5 12.5 22.5 13.5 22.5 14.5 22.5 14.5 21.5 15.5 21.5 16.5 21.5 16.5 20.5 17.5 20.5 18.5 20.5 18.5 19.5 19.5 19.5 19.5 18.5 20.5 18.5 20.5 17.5 20.5 16.5 21.5 16.5 21.5 15.5 21.5 14.5 22.5 14.5 22.5 13.5 22.5 12.5 22.5 11.5 22.5 10.5 21.5 10.5"/><polygon class="cls-2" points="9 9 8 9 8 10 7 10 7 11 7 12 8 12 8 11 9 11 9 10 10 10 10 9 9 9"/><path class="cls-1" d="m18,9v-1h-4v1h-1v1h-1v-1h-1v-1h-4v1h-1v4h1v1h1v1h1v1h1v1h1v1h1v1h1v-1h1v-1h1v-1h1v-1h1v-1h1v-1h1v-4h-1Zm-11,2v-1h1v-1h2v1h-1v1h-1v1h-1v-1Z"/><polygon points="9 8 10 8 11 8 11 7 10 7 9 7 8 7 7 7 7 8 8 8 9 8"/><polygon points="16 8 17 8 18 8 18 7 17 7 16 7 15 7 14 7 14 8 15 8 16 8"/><rect x="6" y="8" width="1" height="1"/><rect x="11" y="8" width="1" height="1"/><rect x="13" y="8" width="1" height="1"/><rect x="18" y="8" width="1" height="1"/><rect x="12" y="9" width="1" height="1"/><polygon points="19 9 19 10 19 11 19 12 19 13 20 13 20 12 20 11 20 10 20 9 19 9"/><polygon points="6 11 6 10 6 9 5 9 5 10 5 11 5 12 5 13 6 13 6 12 6 11"/><rect x="6" y="13" width="1" height="1"/><rect x="18" y="13" width="1" height="1"/><rect x="7" y="14" width="1" height="1"/><rect x="17" y="14" width="1" height="1"/><rect x="8" y="15" width="1" height="1"/><rect x="16" y="15" width="1" height="1"/><rect x="9" y="16" width="1" height="1"/><rect x="15" y="16" width="1" height="1"/><rect x="10" y="17" width="1" height="1"/><rect x="14" y="17" width="1" height="1"/><rect x="11" y="18" width="1" height="1"/><rect x="13" y="18" width="1" height="1"/><rect x="12" y="19" width="1" height="1"/></svg>